<svg xmlns="http://www.w3.org/2000/svg" width="206" height="206" viewBox="0 0 206 206" fill="none">
  <g opacity="0.7">
    <mask id="mask0_1678_119" style="mask-type:alpha" maskUnits="userSpaceOnUse" x="0" y="0" width="206" height="206">
      <rect width="206" height="206" fill="#D9D9D9"/>
    </mask>
    <g mask="url(#mask0_1678_119)">
      <path d="M42.9167 188.833C38.1958 188.833 34.1545 187.152 30.7927 183.79C27.4309 180.429 25.75 176.387 25.75 171.666V132.612L49.3542 105.789L61.5854 118.021L44.4187 137.333H161.581L144.844 118.45L157.075 106.218L180.25 132.612V171.666C180.25 176.387 178.569 180.429 175.207 183.79C171.845 187.152 167.804 188.833 163.083 188.833H42.9167ZM42.9167 171.666H163.083V154.5H42.9167V171.666ZM91.1979 123.385L60.9417 93.1289C57.6514 89.8386 56.042 85.7973 56.1135 81.0049C56.1851 76.2126 57.866 72.1712 61.1562 68.881L103.215 26.8226C106.505 23.5324 110.582 21.8157 115.446 21.6726C120.31 21.5296 124.387 23.1032 127.677 26.3935L157.933 56.6497C161.224 59.94 162.94 63.9456 163.083 68.6664C163.226 73.3872 161.653 77.3928 158.362 80.683L115.446 123.6C112.156 126.89 108.114 128.499 103.322 128.428C98.5295 128.356 94.4882 126.675 91.1979 123.385ZM145.917 68.881L115.66 38.6247L73.1729 81.1122L103.429 111.368L145.917 68.881Z" fill="white"/>
    </g>
  </g>
</svg>